<mxfile host="app.diagrams.net" modified="2024-07-22T11:03:23.566Z" agent="Mozilla/5.0 (Windows NT 10.0; Win64; x64) AppleWebKit/537.36 (KHTML, like Gecko) Chrome/126.0.0.0 Safari/537.36" etag="c-H_rdpG5nFa6NC87Rp2" version="24.7.1" type="device">
  <diagram name="Page-1" id="mvwmTSi5_IDH5NFqB58P">
    <mxGraphModel dx="1066" dy="462" grid="1" gridSize="10" guides="1" tooltips="1" connect="1" arrows="1" fold="1" page="1" pageScale="1" pageWidth="850" pageHeight="1100" math="0" shadow="0">
      <root>
        <mxCell id="0" />
        <mxCell id="1" parent="0" />
        <mxCell id="kEGFDjtUeoTELBh9W7m1-1" style="edgeStyle=orthogonalEdgeStyle;rounded=0;orthogonalLoop=1;jettySize=auto;html=1;exitX=0.75;exitY=0;exitDx=0;exitDy=0;" edge="1" parent="1" source="kEGFDjtUeoTELBh9W7m1-5" target="kEGFDjtUeoTELBh9W7m1-8">
          <mxGeometry relative="1" as="geometry" />
        </mxCell>
        <mxCell id="kEGFDjtUeoTELBh9W7m1-2" style="edgeStyle=orthogonalEdgeStyle;rounded=0;orthogonalLoop=1;jettySize=auto;html=1;exitX=0;exitY=0.5;exitDx=0;exitDy=0;entryX=1;entryY=0;entryDx=0;entryDy=0;" edge="1" parent="1" source="kEGFDjtUeoTELBh9W7m1-5" target="kEGFDjtUeoTELBh9W7m1-7">
          <mxGeometry relative="1" as="geometry" />
        </mxCell>
        <mxCell id="kEGFDjtUeoTELBh9W7m1-3" style="edgeStyle=orthogonalEdgeStyle;rounded=0;orthogonalLoop=1;jettySize=auto;html=1;exitX=0.5;exitY=1;exitDx=0;exitDy=0;entryX=0.5;entryY=0;entryDx=0;entryDy=0;" edge="1" parent="1" source="kEGFDjtUeoTELBh9W7m1-5" target="kEGFDjtUeoTELBh9W7m1-41">
          <mxGeometry relative="1" as="geometry" />
        </mxCell>
        <mxCell id="kEGFDjtUeoTELBh9W7m1-4" style="edgeStyle=orthogonalEdgeStyle;rounded=0;orthogonalLoop=1;jettySize=auto;html=1;exitX=1;exitY=0.5;exitDx=0;exitDy=0;entryX=0.5;entryY=0;entryDx=0;entryDy=0;" edge="1" parent="1" source="kEGFDjtUeoTELBh9W7m1-5" target="kEGFDjtUeoTELBh9W7m1-43">
          <mxGeometry relative="1" as="geometry" />
        </mxCell>
        <mxCell id="kEGFDjtUeoTELBh9W7m1-5" value="CUSTOMER" style="rounded=0;whiteSpace=wrap;html=1;" vertex="1" parent="1">
          <mxGeometry x="150" y="180" width="150" height="60" as="geometry" />
        </mxCell>
        <mxCell id="kEGFDjtUeoTELBh9W7m1-6" value="authorization" style="ellipse;whiteSpace=wrap;html=1;" vertex="1" parent="1">
          <mxGeometry x="90" y="80" width="100" height="80" as="geometry" />
        </mxCell>
        <mxCell id="kEGFDjtUeoTELBh9W7m1-7" value="admin previliges" style="ellipse;whiteSpace=wrap;html=1;" vertex="1" parent="1">
          <mxGeometry x="40" y="220" width="90" height="80" as="geometry" />
        </mxCell>
        <mxCell id="kEGFDjtUeoTELBh9W7m1-8" value="profile" style="ellipse;whiteSpace=wrap;html=1;" vertex="1" parent="1">
          <mxGeometry x="250" y="70" width="120" height="80" as="geometry" />
        </mxCell>
        <mxCell id="kEGFDjtUeoTELBh9W7m1-9" style="edgeStyle=orthogonalEdgeStyle;rounded=0;orthogonalLoop=1;jettySize=auto;html=1;exitX=0.25;exitY=0;exitDx=0;exitDy=0;entryX=0.76;entryY=0.908;entryDx=0;entryDy=0;entryPerimeter=0;" edge="1" parent="1" source="kEGFDjtUeoTELBh9W7m1-5" target="kEGFDjtUeoTELBh9W7m1-6">
          <mxGeometry relative="1" as="geometry" />
        </mxCell>
        <mxCell id="kEGFDjtUeoTELBh9W7m1-10" style="edgeStyle=orthogonalEdgeStyle;rounded=0;orthogonalLoop=1;jettySize=auto;html=1;exitX=0.75;exitY=0;exitDx=0;exitDy=0;" edge="1" parent="1" source="kEGFDjtUeoTELBh9W7m1-14" target="kEGFDjtUeoTELBh9W7m1-17">
          <mxGeometry relative="1" as="geometry" />
        </mxCell>
        <mxCell id="kEGFDjtUeoTELBh9W7m1-11" style="edgeStyle=orthogonalEdgeStyle;rounded=0;orthogonalLoop=1;jettySize=auto;html=1;exitX=0;exitY=0.5;exitDx=0;exitDy=0;entryX=1;entryY=0;entryDx=0;entryDy=0;" edge="1" parent="1" source="kEGFDjtUeoTELBh9W7m1-14" target="kEGFDjtUeoTELBh9W7m1-16">
          <mxGeometry relative="1" as="geometry" />
        </mxCell>
        <mxCell id="kEGFDjtUeoTELBh9W7m1-12" style="edgeStyle=orthogonalEdgeStyle;rounded=0;orthogonalLoop=1;jettySize=auto;html=1;exitX=0.5;exitY=1;exitDx=0;exitDy=0;entryX=0.5;entryY=0;entryDx=0;entryDy=0;" edge="1" parent="1" source="kEGFDjtUeoTELBh9W7m1-14" target="kEGFDjtUeoTELBh9W7m1-36">
          <mxGeometry relative="1" as="geometry" />
        </mxCell>
        <mxCell id="kEGFDjtUeoTELBh9W7m1-13" style="edgeStyle=orthogonalEdgeStyle;rounded=0;orthogonalLoop=1;jettySize=auto;html=1;exitX=1;exitY=0.5;exitDx=0;exitDy=0;entryX=0.5;entryY=0;entryDx=0;entryDy=0;" edge="1" parent="1" source="kEGFDjtUeoTELBh9W7m1-14" target="kEGFDjtUeoTELBh9W7m1-37">
          <mxGeometry relative="1" as="geometry" />
        </mxCell>
        <mxCell id="kEGFDjtUeoTELBh9W7m1-14" value="CPROFILE" style="rounded=0;whiteSpace=wrap;html=1;" vertex="1" parent="1">
          <mxGeometry x="580" y="190" width="150" height="60" as="geometry" />
        </mxCell>
        <mxCell id="kEGFDjtUeoTELBh9W7m1-15" value="cus_name" style="ellipse;whiteSpace=wrap;html=1;" vertex="1" parent="1">
          <mxGeometry x="520" y="80" width="100" height="80" as="geometry" />
        </mxCell>
        <mxCell id="kEGFDjtUeoTELBh9W7m1-16" value="address" style="ellipse;whiteSpace=wrap;html=1;" vertex="1" parent="1">
          <mxGeometry x="480" y="280" width="90" height="80" as="geometry" />
        </mxCell>
        <mxCell id="kEGFDjtUeoTELBh9W7m1-17" value="email_id" style="ellipse;whiteSpace=wrap;html=1;" vertex="1" parent="1">
          <mxGeometry x="680" y="70" width="120" height="80" as="geometry" />
        </mxCell>
        <mxCell id="kEGFDjtUeoTELBh9W7m1-18" style="edgeStyle=orthogonalEdgeStyle;rounded=0;orthogonalLoop=1;jettySize=auto;html=1;exitX=0.25;exitY=0;exitDx=0;exitDy=0;entryX=0.76;entryY=0.908;entryDx=0;entryDy=0;entryPerimeter=0;" edge="1" parent="1" source="kEGFDjtUeoTELBh9W7m1-14" target="kEGFDjtUeoTELBh9W7m1-15">
          <mxGeometry relative="1" as="geometry" />
        </mxCell>
        <mxCell id="kEGFDjtUeoTELBh9W7m1-19" style="edgeStyle=orthogonalEdgeStyle;rounded=0;orthogonalLoop=1;jettySize=auto;html=1;exitX=0.75;exitY=0;exitDx=0;exitDy=0;" edge="1" parent="1" source="kEGFDjtUeoTELBh9W7m1-21" target="kEGFDjtUeoTELBh9W7m1-24">
          <mxGeometry relative="1" as="geometry" />
        </mxCell>
        <mxCell id="kEGFDjtUeoTELBh9W7m1-20" style="edgeStyle=orthogonalEdgeStyle;rounded=0;orthogonalLoop=1;jettySize=auto;html=1;exitX=0;exitY=0.5;exitDx=0;exitDy=0;entryX=1;entryY=0;entryDx=0;entryDy=0;" edge="1" parent="1" source="kEGFDjtUeoTELBh9W7m1-21" target="kEGFDjtUeoTELBh9W7m1-23">
          <mxGeometry relative="1" as="geometry" />
        </mxCell>
        <mxCell id="kEGFDjtUeoTELBh9W7m1-21" value="CART" style="rounded=0;whiteSpace=wrap;html=1;" vertex="1" parent="1">
          <mxGeometry x="160" y="540" width="150" height="60" as="geometry" />
        </mxCell>
        <mxCell id="kEGFDjtUeoTELBh9W7m1-22" value="no_of_products" style="ellipse;whiteSpace=wrap;html=1;" vertex="1" parent="1">
          <mxGeometry x="100" y="440" width="100" height="80" as="geometry" />
        </mxCell>
        <mxCell id="kEGFDjtUeoTELBh9W7m1-23" value="total_price" style="ellipse;whiteSpace=wrap;html=1;" vertex="1" parent="1">
          <mxGeometry x="50" y="580" width="90" height="80" as="geometry" />
        </mxCell>
        <mxCell id="kEGFDjtUeoTELBh9W7m1-24" value="cart_id" style="ellipse;whiteSpace=wrap;html=1;" vertex="1" parent="1">
          <mxGeometry x="270" y="410" width="120" height="80" as="geometry" />
        </mxCell>
        <mxCell id="kEGFDjtUeoTELBh9W7m1-25" style="edgeStyle=orthogonalEdgeStyle;rounded=0;orthogonalLoop=1;jettySize=auto;html=1;exitX=0.25;exitY=0;exitDx=0;exitDy=0;entryX=0.76;entryY=0.908;entryDx=0;entryDy=0;entryPerimeter=0;" edge="1" parent="1" source="kEGFDjtUeoTELBh9W7m1-21" target="kEGFDjtUeoTELBh9W7m1-22">
          <mxGeometry relative="1" as="geometry" />
        </mxCell>
        <mxCell id="kEGFDjtUeoTELBh9W7m1-26" style="edgeStyle=orthogonalEdgeStyle;rounded=0;orthogonalLoop=1;jettySize=auto;html=1;exitX=0.75;exitY=0;exitDx=0;exitDy=0;" edge="1" parent="1" source="kEGFDjtUeoTELBh9W7m1-31" target="kEGFDjtUeoTELBh9W7m1-34">
          <mxGeometry relative="1" as="geometry">
            <Array as="points">
              <mxPoint x="713" y="530" />
              <mxPoint x="720" y="530" />
            </Array>
          </mxGeometry>
        </mxCell>
        <mxCell id="kEGFDjtUeoTELBh9W7m1-27" style="edgeStyle=orthogonalEdgeStyle;rounded=0;orthogonalLoop=1;jettySize=auto;html=1;exitX=0.5;exitY=1;exitDx=0;exitDy=0;" edge="1" parent="1" source="kEGFDjtUeoTELBh9W7m1-31" target="kEGFDjtUeoTELBh9W7m1-38">
          <mxGeometry relative="1" as="geometry">
            <Array as="points">
              <mxPoint x="675" y="630" />
              <mxPoint x="725" y="630" />
            </Array>
          </mxGeometry>
        </mxCell>
        <mxCell id="kEGFDjtUeoTELBh9W7m1-28" style="edgeStyle=orthogonalEdgeStyle;rounded=0;orthogonalLoop=1;jettySize=auto;html=1;exitX=1;exitY=0.5;exitDx=0;exitDy=0;" edge="1" parent="1" source="kEGFDjtUeoTELBh9W7m1-31" target="kEGFDjtUeoTELBh9W7m1-39">
          <mxGeometry relative="1" as="geometry" />
        </mxCell>
        <mxCell id="kEGFDjtUeoTELBh9W7m1-29" style="edgeStyle=orthogonalEdgeStyle;rounded=0;orthogonalLoop=1;jettySize=auto;html=1;exitX=0;exitY=0.75;exitDx=0;exitDy=0;" edge="1" parent="1" source="kEGFDjtUeoTELBh9W7m1-31">
          <mxGeometry relative="1" as="geometry">
            <mxPoint x="580" y="585" as="targetPoint" />
          </mxGeometry>
        </mxCell>
        <mxCell id="kEGFDjtUeoTELBh9W7m1-30" style="edgeStyle=orthogonalEdgeStyle;rounded=0;orthogonalLoop=1;jettySize=auto;html=1;exitX=0;exitY=0.75;exitDx=0;exitDy=0;entryX=0.5;entryY=0;entryDx=0;entryDy=0;" edge="1" parent="1" source="kEGFDjtUeoTELBh9W7m1-31" target="kEGFDjtUeoTELBh9W7m1-33">
          <mxGeometry relative="1" as="geometry" />
        </mxCell>
        <mxCell id="kEGFDjtUeoTELBh9W7m1-31" value="" style="rounded=0;whiteSpace=wrap;html=1;" vertex="1" parent="1">
          <mxGeometry x="600" y="540" width="150" height="60" as="geometry" />
        </mxCell>
        <mxCell id="kEGFDjtUeoTELBh9W7m1-32" value="product_name" style="ellipse;whiteSpace=wrap;html=1;" vertex="1" parent="1">
          <mxGeometry x="495" y="400" width="100" height="80" as="geometry" />
        </mxCell>
        <mxCell id="kEGFDjtUeoTELBh9W7m1-33" value="description" style="ellipse;whiteSpace=wrap;html=1;" vertex="1" parent="1">
          <mxGeometry x="530" y="640" width="90" height="80" as="geometry" />
        </mxCell>
        <mxCell id="kEGFDjtUeoTELBh9W7m1-34" value="product_id" style="ellipse;whiteSpace=wrap;html=1;" vertex="1" parent="1">
          <mxGeometry x="660" y="385" width="120" height="80" as="geometry" />
        </mxCell>
        <mxCell id="kEGFDjtUeoTELBh9W7m1-35" style="edgeStyle=orthogonalEdgeStyle;rounded=0;orthogonalLoop=1;jettySize=auto;html=1;exitX=0.25;exitY=0;exitDx=0;exitDy=0;entryX=0.76;entryY=0.908;entryDx=0;entryDy=0;entryPerimeter=0;" edge="1" parent="1" source="kEGFDjtUeoTELBh9W7m1-31" target="kEGFDjtUeoTELBh9W7m1-32">
          <mxGeometry relative="1" as="geometry" />
        </mxCell>
        <mxCell id="kEGFDjtUeoTELBh9W7m1-36" value="contact_no" style="ellipse;whiteSpace=wrap;html=1;" vertex="1" parent="1">
          <mxGeometry x="595" y="280" width="105" height="50" as="geometry" />
        </mxCell>
        <mxCell id="kEGFDjtUeoTELBh9W7m1-37" value="date_of_birth" style="ellipse;whiteSpace=wrap;html=1;" vertex="1" parent="1">
          <mxGeometry x="770" y="220" width="120" height="80" as="geometry" />
        </mxCell>
        <mxCell id="kEGFDjtUeoTELBh9W7m1-38" value="price" style="ellipse;whiteSpace=wrap;html=1;" vertex="1" parent="1">
          <mxGeometry x="670" y="650" width="110" height="80" as="geometry" />
        </mxCell>
        <mxCell id="kEGFDjtUeoTELBh9W7m1-39" value="product_review" style="ellipse;whiteSpace=wrap;html=1;" vertex="1" parent="1">
          <mxGeometry x="860" y="560" width="120" height="80" as="geometry" />
        </mxCell>
        <mxCell id="kEGFDjtUeoTELBh9W7m1-40" style="edgeStyle=orthogonalEdgeStyle;rounded=0;orthogonalLoop=1;jettySize=auto;html=1;exitX=0.5;exitY=1;exitDx=0;exitDy=0;" edge="1" parent="1" source="kEGFDjtUeoTELBh9W7m1-41" target="kEGFDjtUeoTELBh9W7m1-21">
          <mxGeometry relative="1" as="geometry" />
        </mxCell>
        <mxCell id="kEGFDjtUeoTELBh9W7m1-41" value="one to one" style="rhombus;whiteSpace=wrap;html=1;" vertex="1" parent="1">
          <mxGeometry x="180" y="330" width="80" height="80" as="geometry" />
        </mxCell>
        <mxCell id="kEGFDjtUeoTELBh9W7m1-42" style="edgeStyle=orthogonalEdgeStyle;rounded=0;orthogonalLoop=1;jettySize=auto;html=1;exitX=0.5;exitY=1;exitDx=0;exitDy=0;entryX=0;entryY=0.25;entryDx=0;entryDy=0;" edge="1" parent="1" source="kEGFDjtUeoTELBh9W7m1-43" target="kEGFDjtUeoTELBh9W7m1-14">
          <mxGeometry relative="1" as="geometry" />
        </mxCell>
        <mxCell id="kEGFDjtUeoTELBh9W7m1-43" value="one to one" style="rhombus;whiteSpace=wrap;html=1;direction=north;" vertex="1" parent="1">
          <mxGeometry x="400" y="180" width="80" height="80" as="geometry" />
        </mxCell>
        <mxCell id="kEGFDjtUeoTELBh9W7m1-44" value="PRODUCTS" style="rounded=0;whiteSpace=wrap;html=1;" vertex="1" parent="1">
          <mxGeometry x="625" y="550" width="100" height="40" as="geometry" />
        </mxCell>
        <mxCell id="kEGFDjtUeoTELBh9W7m1-45" style="edgeStyle=orthogonalEdgeStyle;rounded=0;orthogonalLoop=1;jettySize=auto;html=1;exitX=1;exitY=0.5;exitDx=0;exitDy=0;entryX=0;entryY=0.5;entryDx=0;entryDy=0;" edge="1" parent="1" source="kEGFDjtUeoTELBh9W7m1-47" target="kEGFDjtUeoTELBh9W7m1-31">
          <mxGeometry relative="1" as="geometry" />
        </mxCell>
        <mxCell id="kEGFDjtUeoTELBh9W7m1-46" style="edgeStyle=orthogonalEdgeStyle;rounded=0;orthogonalLoop=1;jettySize=auto;html=1;exitX=0;exitY=0.5;exitDx=0;exitDy=0;" edge="1" parent="1" source="kEGFDjtUeoTELBh9W7m1-47" target="kEGFDjtUeoTELBh9W7m1-21">
          <mxGeometry relative="1" as="geometry" />
        </mxCell>
        <mxCell id="kEGFDjtUeoTELBh9W7m1-47" value="" style="rhombus;whiteSpace=wrap;html=1;" vertex="1" parent="1">
          <mxGeometry x="360" y="530" width="130" height="80" as="geometry" />
        </mxCell>
        <mxCell id="kEGFDjtUeoTELBh9W7m1-48" value="many to many" style="rhombus;whiteSpace=wrap;html=1;" vertex="1" parent="1">
          <mxGeometry x="380" y="540" width="90" height="60" as="geometry" />
        </mxCell>
        <mxCell id="kEGFDjtUeoTELBh9W7m1-49" value="" style="ellipse;whiteSpace=wrap;html=1;" vertex="1" parent="1">
          <mxGeometry x="820" y="440" width="120" height="80" as="geometry" />
        </mxCell>
        <mxCell id="kEGFDjtUeoTELBh9W7m1-50" value="" style="endArrow=classic;html=1;rounded=0;exitX=1.02;exitY=0.15;exitDx=0;exitDy=0;exitPerimeter=0;entryX=0;entryY=1;entryDx=0;entryDy=0;" edge="1" parent="1" source="kEGFDjtUeoTELBh9W7m1-31" target="kEGFDjtUeoTELBh9W7m1-49">
          <mxGeometry width="50" height="50" relative="1" as="geometry">
            <mxPoint x="780" y="560" as="sourcePoint" />
            <mxPoint x="830" y="510" as="targetPoint" />
            <Array as="points" />
          </mxGeometry>
        </mxCell>
        <mxCell id="kEGFDjtUeoTELBh9W7m1-51" value="stock" style="text;strokeColor=none;align=center;fillColor=none;html=1;verticalAlign=middle;whiteSpace=wrap;rounded=0;" vertex="1" parent="1">
          <mxGeometry x="840" y="465" width="80" height="35" as="geometry" />
        </mxCell>
        <mxCell id="kEGFDjtUeoTELBh9W7m1-52" value="" style="endArrow=classic;html=1;rounded=0;exitX=0.455;exitY=1.077;exitDx=0;exitDy=0;exitPerimeter=0;" edge="1" parent="1" source="kEGFDjtUeoTELBh9W7m1-21" target="kEGFDjtUeoTELBh9W7m1-54">
          <mxGeometry width="50" height="50" relative="1" as="geometry">
            <mxPoint x="220" y="670" as="sourcePoint" />
            <mxPoint x="228" y="670" as="targetPoint" />
          </mxGeometry>
        </mxCell>
        <mxCell id="kEGFDjtUeoTELBh9W7m1-54" value="" style="rhombus;whiteSpace=wrap;html=1;" vertex="1" parent="1">
          <mxGeometry x="190" y="660" width="80" height="80" as="geometry" />
        </mxCell>
        <mxCell id="kEGFDjtUeoTELBh9W7m1-55" value="one to one" style="text;strokeColor=none;align=center;fillColor=none;html=1;verticalAlign=middle;whiteSpace=wrap;rounded=0;" vertex="1" parent="1">
          <mxGeometry x="200" y="685" width="60" height="30" as="geometry" />
        </mxCell>
        <mxCell id="kEGFDjtUeoTELBh9W7m1-56" value="" style="endArrow=classic;html=1;rounded=0;exitX=0.5;exitY=1;exitDx=0;exitDy=0;" edge="1" parent="1" source="kEGFDjtUeoTELBh9W7m1-54">
          <mxGeometry width="50" height="50" relative="1" as="geometry">
            <mxPoint x="400" y="760" as="sourcePoint" />
            <mxPoint x="230" y="790" as="targetPoint" />
          </mxGeometry>
        </mxCell>
        <mxCell id="kEGFDjtUeoTELBh9W7m1-57" value="" style="rounded=0;whiteSpace=wrap;html=1;" vertex="1" parent="1">
          <mxGeometry x="170" y="790" width="120" height="60" as="geometry" />
        </mxCell>
        <mxCell id="kEGFDjtUeoTELBh9W7m1-58" value="payment" style="text;strokeColor=none;align=center;fillColor=none;html=1;verticalAlign=middle;whiteSpace=wrap;rounded=0;" vertex="1" parent="1">
          <mxGeometry x="195" y="805" width="60" height="30" as="geometry" />
        </mxCell>
        <mxCell id="kEGFDjtUeoTELBh9W7m1-59" value="" style="endArrow=classic;html=1;rounded=0;exitX=1;exitY=0.5;exitDx=0;exitDy=0;" edge="1" parent="1" source="kEGFDjtUeoTELBh9W7m1-57">
          <mxGeometry width="50" height="50" relative="1" as="geometry">
            <mxPoint x="330" y="830" as="sourcePoint" />
            <mxPoint x="360" y="820" as="targetPoint" />
          </mxGeometry>
        </mxCell>
        <mxCell id="kEGFDjtUeoTELBh9W7m1-60" value="" style="ellipse;whiteSpace=wrap;html=1;" vertex="1" parent="1">
          <mxGeometry x="360" y="785" width="110" height="70" as="geometry" />
        </mxCell>
        <mxCell id="kEGFDjtUeoTELBh9W7m1-61" value="" style="endArrow=classic;html=1;rounded=0;exitX=0.318;exitY=1.032;exitDx=0;exitDy=0;exitPerimeter=0;" edge="1" parent="1" source="kEGFDjtUeoTELBh9W7m1-57" target="kEGFDjtUeoTELBh9W7m1-62">
          <mxGeometry width="50" height="50" relative="1" as="geometry">
            <mxPoint x="350" y="770" as="sourcePoint" />
            <mxPoint x="240" y="920" as="targetPoint" />
            <Array as="points">
              <mxPoint x="180" y="870" />
            </Array>
          </mxGeometry>
        </mxCell>
        <mxCell id="kEGFDjtUeoTELBh9W7m1-62" value="" style="ellipse;whiteSpace=wrap;html=1;" vertex="1" parent="1">
          <mxGeometry x="120" y="887.5" width="110" height="70" as="geometry" />
        </mxCell>
        <mxCell id="kEGFDjtUeoTELBh9W7m1-63" value="" style="endArrow=classic;html=1;rounded=0;exitX=0.008;exitY=0.653;exitDx=0;exitDy=0;exitPerimeter=0;" edge="1" parent="1" source="kEGFDjtUeoTELBh9W7m1-57" target="kEGFDjtUeoTELBh9W7m1-64">
          <mxGeometry width="50" height="50" relative="1" as="geometry">
            <mxPoint x="350" y="770" as="sourcePoint" />
            <mxPoint x="120" y="829" as="targetPoint" />
          </mxGeometry>
        </mxCell>
        <mxCell id="kEGFDjtUeoTELBh9W7m1-64" value="" style="ellipse;whiteSpace=wrap;html=1;" vertex="1" parent="1">
          <mxGeometry x="25" y="790" width="120" height="80" as="geometry" />
        </mxCell>
        <mxCell id="kEGFDjtUeoTELBh9W7m1-65" value="payment_id" style="text;strokeColor=none;align=center;fillColor=none;html=1;verticalAlign=middle;whiteSpace=wrap;rounded=0;" vertex="1" parent="1">
          <mxGeometry x="385" y="805" width="60" height="30" as="geometry" />
        </mxCell>
        <mxCell id="kEGFDjtUeoTELBh9W7m1-66" value="order_id" style="text;strokeColor=none;align=center;fillColor=none;html=1;verticalAlign=middle;whiteSpace=wrap;rounded=0;" vertex="1" parent="1">
          <mxGeometry x="145" y="910" width="60" height="30" as="geometry" />
        </mxCell>
        <mxCell id="kEGFDjtUeoTELBh9W7m1-67" value="payment_date" style="text;strokeColor=none;align=center;fillColor=none;html=1;verticalAlign=middle;whiteSpace=wrap;rounded=0;" vertex="1" parent="1">
          <mxGeometry x="55" y="815" width="60" height="30" as="geometry" />
        </mxCell>
        <mxCell id="kEGFDjtUeoTELBh9W7m1-68" value="" style="endArrow=classic;html=1;rounded=0;exitX=0.841;exitY=1.062;exitDx=0;exitDy=0;exitPerimeter=0;entryX=0.5;entryY=0;entryDx=0;entryDy=0;" edge="1" parent="1" source="kEGFDjtUeoTELBh9W7m1-57" target="kEGFDjtUeoTELBh9W7m1-70">
          <mxGeometry width="50" height="50" relative="1" as="geometry">
            <mxPoint x="290" y="930" as="sourcePoint" />
            <mxPoint x="280" y="890" as="targetPoint" />
            <Array as="points">
              <mxPoint x="310" y="870" />
            </Array>
          </mxGeometry>
        </mxCell>
        <mxCell id="kEGFDjtUeoTELBh9W7m1-70" value="" style="ellipse;whiteSpace=wrap;html=1;" vertex="1" parent="1">
          <mxGeometry x="255" y="890" width="100" height="65" as="geometry" />
        </mxCell>
        <mxCell id="kEGFDjtUeoTELBh9W7m1-72" value="payment_method" style="text;strokeColor=none;align=center;fillColor=none;html=1;verticalAlign=middle;whiteSpace=wrap;rounded=0;" vertex="1" parent="1">
          <mxGeometry x="280" y="910" width="50" height="20" as="geometry" />
        </mxCell>
      </root>
    </mxGraphModel>
  </diagram>
</mxfile>
